HIERARCHY
ROOT joint_Root
{
	OFFSET 0.0 0.0 0.0
	CHANNELS 6 Xposition Yposition Zposition Zrotation Xrotation Yrotation 
	JOINT Hips
	{
		OFFSET 4.5925 91.4895 -427.239
		CHANNELS 6 Xposition Yposition Zposition Zrotation Xrotation Yrotation 
		JOINT Spine
		{
			OFFSET 15.7357 0.0 0.0
			CHANNELS 6 Xposition Yposition Zposition Zrotation Xrotation Yrotation 
			JOINT Chest
			{
				OFFSET 8.98455 -0.406207 0.0
				CHANNELS 6 Xposition Yposition Zposition Zrotation Xrotation Yrotation 
				JOINT Neck
				{
					OFFSET 16.3773 0.0 0.0
					CHANNELS 6 Xposition Yposition Zposition Zrotation Xrotation Yrotation 
					JOINT Head
					{
						OFFSET 6.45672 0.0 0.0
						CHANNELS 6 Xposition Yposition Zposition Zrotation Xrotation Yrotation 
						End Site
						{
							OFFSET 0.0 0.0 0.0
						}
					}
				}
				JOINT Shoulder_L
				{
					OFFSET 12.9942 -0.242716 4.98039
					CHANNELS 6 Xposition Yposition Zposition Zrotation Xrotation Yrotation 
					JOINT UpperArm_L
					{
						OFFSET 5.34809 0.0 0.0
						CHANNELS 6 Xposition Yposition Zposition Zrotation Xrotation Yrotation 
						JOINT LowerArm_L
						{
							OFFSET 24.3286 1.87007e-05 0.0
							CHANNELS 6 Xposition Yposition Zposition Zrotation Xrotation Yrotation 
							JOINT Hand_L
							{
								OFFSET 22.2916 0.0 0.0
								CHANNELS 6 Xposition Yposition Zposition Zrotation Xrotation Yrotation 
								End Site
								{
									OFFSET 0.0 0.0 0.0
								}
							}
						}
					}
				}
				JOINT Shoulder_R
				{
					OFFSET 12.9945 -0.242716 -4.98039
					CHANNELS 6 Xposition Yposition Zposition Zrotation Xrotation Yrotation 
					JOINT UpperArm_R
					{
						OFFSET -5.34813 0.0 0.0
						CHANNELS 6 Xposition Yposition Zposition Zrotation Xrotation Yrotation 
						JOINT LowerArm_R
						{
							OFFSET -24.3289 0.000322201 0.0
							CHANNELS 6 Xposition Yposition Zposition Zrotation Xrotation Yrotation 
							JOINT Hand_R
							{
								OFFSET -22.2915 -0.000108084 0.0
								CHANNELS 6 Xposition Yposition Zposition Zrotation Xrotation Yrotation 
								End Site
								{
									OFFSET 0.0 0.0 0.0
								}
							}
						}
					}
				}
			}
		}
		JOINT UpperLeg_L
		{
			OFFSET -2.19248 -6.46944 0.0
			CHANNELS 6 Xposition Yposition Zposition Zrotation Xrotation Yrotation 
			JOINT LowerLeg_L
			{
				OFFSET 39.0811 0.0 -1.23785e-05
				CHANNELS 6 Xposition Yposition Zposition Zrotation Xrotation Yrotation 
				JOINT Foot_L
				{
					OFFSET 40.9854 0.0 -1.26872e-05
					CHANNELS 6 Xposition Yposition Zposition Zrotation Xrotation Yrotation 
					JOINT Toes_L
					{
						OFFSET 11.7543 0.0 0.0
						CHANNELS 6 Xposition Yposition Zposition Zrotation Xrotation Yrotation 
						End Site
						{
							OFFSET 0.0 0.0 0.0
						}
					}
				}
			}
		}
		JOINT UpperLeg_R
		{
			OFFSET -2.19251 6.46944 0.0
			CHANNELS 6 Xposition Yposition Zposition Zrotation Xrotation Yrotation 
			JOINT LowerLeg_R
			{
				OFFSET -39.0811 -0.00228153 -0.0401928
				CHANNELS 6 Xposition Yposition Zposition Zrotation Xrotation Yrotation 
				JOINT Foot_R
				{
					OFFSET -40.9854 0.0 0.0
					CHANNELS 6 Xposition Yposition Zposition Zrotation Xrotation Yrotation 
					JOINT Toes_R
					{
						OFFSET -11.7543 0.0 0.0
						CHANNELS 6 Xposition Yposition Zposition Zrotation Xrotation Yrotation 
						End Site
						{
							OFFSET 0.0 0.0 0.0
						}
					}
				}
			}
		}
	}
}
MOTION
Frames:	4
Frame Time:	0.0333333
0.000000 0.000000 0.000000 0.000000 0.000000 -0.000000 0.545284 84.810500 53.527000 -88.392700 -5.204800 174.838000 15.735700 0.000005 -0.000001 65.473900 82.950000 -65.833400 8.984550 -0.406207 -0.000000 5.064370 -5.832510 -0.460467 16.377300 -0.000001 -0.000001 -5.019870 -2.236740 -1.299420 6.456720 -0.000001 -0.000000 -9.186610 0.857332 -4.638300 12.994200 -0.242716 4.980390 -90.584300 1.823620 -72.244600 5.348090 -0.000007 -0.000001 -71.353600 18.279400 -17.020800 24.328600 0.000019 0.000005 15.028200 -6.637160 -113.293000 22.291600 -0.000001 0.000005 10.522900 5.448380 -4.582130 12.994500 -0.242716 -4.980390 87.912800 7.465630 -74.329600 -5.348130 -0.000001 -0.000004 -71.061600 33.726200 16.496100 -24.328900 0.000322 -0.000009 -6.337550 -0.271921 -87.569000 -22.291500 -0.000108 -0.000004 20.322300 5.624560 -12.924200 -2.192480 -6.469440 -0.000000 179.851000 -4.850120 -10.595700 39.081100 -0.000007 -0.000012 0.096339 -0.095026 45.392200 40.985400 -0.000006 -0.000013 7.866520 -0.366350 -88.299500 11.754300 -0.000000 0.000003 -1.512900 -1.852040 -18.005900 -2.192510 6.469440 -0.000001 -175.824000 7.816140 136.270000 -39.081100 -0.002282 -0.040193 -0.270190 -0.152918 119.194000 -40.985400 0.000008 0.000006 11.399000 -11.323900 -51.240000 -11.754300 -0.000006 -0.000006 -0.017988 -0.155879 -22.938200
0.000000 0.000000 0.000000 0.000000 0.000000 -0.000000 1.063890 88.073200 44.225700 -86.308500 -7.199600 173.164000 15.735700 0.000005 -0.000001 48.898100 82.673400 -47.994000 8.984550 -0.406207 -0.000000 3.394160 -9.656420 2.096290 16.377300 -0.000001 -0.000001 -4.878450 -2.011310 -1.567370 6.456720 -0.000001 -0.000000 -8.557420 3.221670 -5.752770 12.994200 -0.242716 4.980390 -89.936800 -0.213180 -73.428700 5.348090 -0.000007 -0.000001 -69.927000 24.907200 -21.345700 24.328600 0.000019 0.000005 12.105900 -5.748970 -115.035000 22.291600 -0.000001 0.000005 11.012500 5.448470 -4.589340 12.994500 -0.242716 -4.980390 88.011200 6.232000 -72.259200 -5.348130 -0.000001 -0.000004 -71.329200 37.940700 20.501500 -24.328900 0.000322 -0.000009 -4.737480 0.090772 -91.088900 -22.291500 -0.000108 -0.000004 17.197300 5.620830 -12.673500 -2.192480 -6.469440 -0.000000 -175.727000 -5.339590 -4.053240 39.081100 -0.000007 -0.000012 0.041716 -0.055667 36.846300 40.985400 -0.000006 -0.000013 6.379480 4.666000 -72.889800 11.754300 -0.000000 0.000003 -0.070497 -0.364487 -31.671300 -2.192510 6.469440 -0.000001 -172.566000 5.569750 133.201000 -39.081100 -0.002282 -0.040193 -0.137939 -0.039370 105.539000 -40.985400 0.000008 0.000006 8.848400 -11.227200 -56.905700 -11.754300 -0.000006 -0.000006 -0.017940 -0.155598 -22.926600
0.000000 0.000000 0.000000 0.000000 0.000000 -0.000000 1.366380 91.515800 35.114300 -85.857000 -7.365220 171.389000 15.735700 0.000005 -0.000001 38.482700 82.421300 -37.001900 8.984550 -0.406207 -0.000000 1.863790 -11.934600 3.161930 16.377300 -0.000001 -0.000001 -4.946340 -1.640200 -1.256930 6.456720 -0.000001 -0.000000 -8.940820 4.780110 -5.307340 12.994200 -0.242716 4.980390 -89.366100 -2.128650 -73.415400 5.348090 -0.000007 -0.000001 -65.163900 31.859600 -26.329800 24.328600 0.000019 0.000005 12.164400 -5.970410 -115.759000 22.291600 -0.000001 0.000005 8.579600 5.437820 -4.205760 12.994500 -0.242716 -4.980390 88.361600 4.770600 -71.017700 -5.348130 -0.000001 -0.000004 -72.662200 39.844300 23.964400 -24.328900 0.000322 -0.000009 -4.887000 0.281408 -93.288000 -22.291500 -0.000108 -0.000004 15.835000 5.613430 -12.176800 -2.192480 -6.469440 -0.000000 -172.001000 -11.557200 0.116670 39.081100 -0.000007 -0.000012 0.033067 -0.056627 30.282300 40.985400 -0.000006 -0.000013 2.984200 12.441200 -53.025600 11.754300 -0.000000 0.000003 -0.138144 -0.530782 -38.954700 -2.192510 6.469440 -0.000001 -172.293000 1.832470 132.922000 -39.081100 -0.002282 -0.040193 -0.038635 0.001919 87.267600 -40.985400 0.000008 0.000006 7.582510 -10.825200 -60.986800 -11.754300 -0.000006 -0.000006 -0.017685 -0.154111 -22.865500
0.000000 0.000000 0.000000 0.000000 0.000000 -0.000000 1.381690 93.880300 26.117500 -86.087500 -6.690110 170.313000 15.735700 0.000005 -0.000001 32.910300 82.275900 -31.141600 8.984550 -0.406207 -0.000000 0.864577 -13.071200 3.645440 16.377300 -0.000001 -0.000001 -5.014920 -1.233190 -0.863554 6.456720 -0.000001 -0.000000 -9.168930 5.578560 -3.877010 12.994200 -0.242716 4.980390 -88.708500 -4.266670 -73.140200 5.348090 -0.000007 -0.000001 -61.004700 37.337600 -30.742300 24.328600 0.000019 0.000005 14.963800 -7.384400 -115.682000 22.291600 -0.000001 0.000005 5.708720 5.421140 -3.632820 12.994500 -0.242716 -4.980390 89.191800 2.266980 -70.370400 -5.348130 -0.000001 -0.000004 -75.059600 39.342200 26.654800 -24.328900 0.000322 -0.000009 -2.486620 0.228035 -95.247600 -22.291500 -0.000108 -0.000004 14.991700 5.595530 -11.070200 -2.192480 -6.469440 -0.000000 -170.371000 -12.704800 3.757550 39.081100 -0.000007 -0.000012 0.050118 -0.093608 28.164200 40.985400 -0.000006 -0.000013 1.095400 8.749160 -44.699500 11.754300 -0.000000 0.000003 -0.004128 -0.052769 -18.723400 -2.192510 6.469440 -0.000001 -173.386000 -0.234219 135.543000 -39.081100 -0.002282 -0.040193 0.033139 -0.013355 65.991400 -40.985400 0.000008 0.000006 6.961570 -8.623090 -64.122500 -11.754300 -0.000006 -0.000006 -0.019634 -0.165253 -23.324000
